<?xml version="1.0" encoding="utf-8"?><!-- Uploaded to: SVG Repo, www.svgrepo.com, Generator: SVG Repo Mixer Tools -->
<svg width="800px" height="800px" viewBox="0 0 24 24" fill="none" xmlns="http://www.w3.org/2000/svg">
<path d="M7.82045 14.4601L6.67358 18.9669C6.32924 20.3201 7.77672 21.4446 9.06589 20.8255L10.9987 19.8973C11.6296 19.5943 12.3704 19.5943 13.0013 19.8973L14.9341 20.8255C16.2233 21.4446 17.6707 20.3201 17.3264 18.9669L16.1795 14.4601" stroke="#0095FF" stroke-width="1.5"/>
<path d="M5.75486 7.16223C6.22538 5.21947 7.79162 3.70254 9.79753 3.24683C11.2462 2.91772 12.7538 2.91772 14.2025 3.24683C16.2084 3.70254 17.7746 5.21947 18.2451 7.16223C18.585 8.56527 18.585 10.0254 18.2451 11.4285C17.7746 13.3712 16.2084 14.8882 14.2025 15.3439C12.7538 15.673 11.2462 15.673 9.79754 15.3439C7.79162 14.8882 6.22538 13.3712 5.75486 11.4285C5.41505 10.0254 5.41505 8.56527 5.75486 7.16223Z" stroke="#363853" stroke-width="1.5"/>
</svg>